<?xml version="1.0" encoding="UTF-8"?>
<svg version="1.1" xmlns="http://www.w3.org/2000/svg" width="512" height="512">
<path d="M0 0 C1.56265343 -0.00639748 1.56265343 -0.00639748 3.15687561 -0.01292419 C4.3044635 -0.01247101 5.45205139 -0.01201782 6.63441467 -0.0115509 C8.44178856 -0.01658882 8.44178856 -0.01658882 10.28567505 -0.02172852 C13.59558905 -0.02961609 16.90544034 -0.03290697 20.21535945 -0.0335443 C22.9763795 -0.03449281 25.73739351 -0.03817041 28.49841124 -0.0417164 C35.01119674 -0.04986408 41.52396841 -0.05230034 48.03675842 -0.05158997 C54.76006263 -0.05098901 61.48328665 -0.06154356 68.20657057 -0.07733363 C73.97476675 -0.09039899 79.74293669 -0.09577429 85.51114756 -0.09513456 C88.95806194 -0.09487928 92.40490506 -0.09774669 95.85180473 -0.10831261 C99.694738 -0.11977055 103.53756083 -0.11525293 107.38050842 -0.10920715 C108.52607208 -0.11482666 109.67163574 -0.12044617 110.85191345 -0.12623596 C111.89650223 -0.12204147 112.941091 -0.11784698 114.01733398 -0.11352539 C115.38091742 -0.11434254 115.38091742 -0.11434254 116.772048 -0.1151762 C119.07215881 0.13371277 119.07215881 0.13371277 122.07215881 2.13371277 C123.13145062 5.31158817 123.18674821 7.5596022 123.16981506 10.89543152 C123.16659241 12.01369324 123.16336975 13.13195496 123.16004944 14.28410339 C123.15167053 15.45134949 123.14329163 16.61859558 123.13465881 17.82121277 C123.13014709 19.00006042 123.12563538 20.17890808 123.12098694 21.39347839 C123.10919154 24.30694066 123.09273152 27.2203014 123.07215881 30.13371277 C124.21585937 30.12483032 125.35955994 30.11594788 126.53791809 30.10679626 C137.30883464 30.02575885 148.07968945 29.96577059 158.85084152 29.92646408 C164.38861025 29.90557691 169.92613314 29.87723834 175.46376038 29.83195496 C180.80649995 29.78853797 186.14900286 29.76458417 191.49190521 29.7542038 C193.53171261 29.746805 195.57150686 29.73235709 197.61121368 29.71079254 C200.46534354 29.6818139 203.31849178 29.67775447 206.17274475 29.67961121 C207.44157501 29.65803955 207.44157501 29.65803955 208.73603821 29.6360321 C209.90543945 29.64428009 209.90543945 29.64428009 211.09846497 29.6526947 C211.77321743 29.64900753 212.44796989 29.64532036 213.1431694 29.64152145 C216.17872719 30.41605923 217.25367961 31.58938803 219.07215881 34.13371277 C219.46278552 37.05838556 219.60848766 39.60535748 219.57336426 42.5289917 C219.57889865 43.38375514 219.58443305 44.23851859 219.59013516 45.11918396 C219.6037674 47.98833478 219.58875863 50.85661959 219.5738678 53.72575378 C219.57765001 55.78056712 219.58314924 57.83537791 219.59024048 59.8901825 C219.60422419 65.47478773 219.59300514 71.05908589 219.57652926 76.64367414 C219.5627008 82.48125288 219.56913626 88.31881339 219.57266235 94.15640259 C219.575366 103.95935529 219.56187477 113.76218566 219.53871155 123.56510925 C219.51209348 134.90889786 219.51035652 146.25248198 219.52209991 157.59629112 C219.53286732 168.49715268 219.52669925 179.39794005 219.51254463 190.2987957 C219.50677657 194.9434935 219.50687393 199.58813716 219.51161003 204.23283577 C219.51637141 209.69853358 219.50631296 215.16400655 219.48465538 220.62966156 C219.47907616 222.63925607 219.47863256 224.64887215 219.48360825 226.65846825 C219.48953428 229.3943701 219.47710786 232.12957827 219.45983887 234.86541748 C219.46885394 236.06802927 219.46885394 236.06802927 219.47805113 237.29493624 C219.41623182 242.65315487 219.41623182 242.65315487 217.67292881 245.08798122 C213.97278091 247.50516882 210.70201078 247.26780887 206.40956116 247.24723816 C205.61922989 247.24738419 204.82889862 247.24753021 204.01461792 247.24768066 C201.39574971 247.2469826 198.77695214 247.23919516 196.15809631 247.23136902 C194.34491515 247.22950446 192.53173348 247.22808074 190.71855164 247.2270813 C185.94112258 247.22325909 181.16372383 247.21343131 176.38630676 247.20237732 C171.51336578 247.19215684 166.64041992 247.18758231 161.76747131 247.18254089 C152.20235382 247.1718088 142.63725883 247.15473591 133.07215881 247.13371277 C133.1069635 247.96515808 133.14176819 248.79660339 133.17762756 249.65324402 C133.20469788 250.73992371 133.23176819 251.82660339 133.25965881 252.94621277 C133.2944635 254.02515808 133.32926819 255.10410339 133.36512756 256.21574402 C133.07215881 259.13371277 133.07215881 259.13371277 131.74794006 260.95793152 C128.29381384 263.38145598 125.11611844 263.25550579 121.04017639 263.24723816 C119.79911636 263.24716263 118.55805634 263.2470871 117.27938843 263.24700928 C115.92515523 263.24190267 114.57092245 263.23668668 113.21669006 263.23136902 C111.83092296 263.2295036 110.4451552 263.22808028 109.05938721 263.2270813 C105.41467971 263.22326587 101.77001216 263.21344389 98.12532043 263.20237732 C94.40513153 263.19214227 90.68493597 263.18752439 86.96473694 263.18254089 C79.66717564 263.17235161 72.36972398 263.15277753 65.07215881 263.13371277 C65.07215881 277.32371277 65.07215881 291.51371277 65.07215881 306.13371277 C72.87034241 306.11014709 72.87034241 306.11014709 80.82606506 306.08610535 C97.99297759 306.03642068 115.15989292 306.00311541 132.32685852 305.97827625 C142.73629931 305.96281402 153.14567193 305.94173674 163.55506897 305.90739441 C172.62896299 305.87747242 181.70280763 305.85813309 190.77674961 305.85144728 C195.58036983 305.84753978 200.3838488 305.83836992 205.18742371 305.8165226 C209.71161747 305.79611325 214.23561221 305.78988796 218.75984764 305.79438972 C220.41743235 305.79356651 222.07502393 305.78762739 223.73256874 305.77609634 C234.43888343 305.70528856 243.22165311 305.82571438 251.53309631 313.45402527 C256.4038986 318.76987548 258.15946071 324.37182634 258.27748108 331.45304871 C258.2974263 332.51384644 258.31737152 333.57464417 258.33792114 334.66758728 C258.36298988 336.37558502 258.36298988 336.37558502 258.38856506 338.11808777 C258.40934616 339.28881836 258.43012726 340.45954895 258.45153809 341.66575623 C258.51691509 345.40501546 258.57586372 349.14434481 258.63465881 352.88371277 C258.67785528 355.41887627 258.72146994 357.95403268 258.76551819 360.48918152 C258.8725844 366.70395116 258.97437291 372.91879055 259.07215881 379.13371277 C259.69338623 379.40383682 260.31461365 379.67396088 260.95466614 379.95227051 C261.76784302 380.30903366 262.5810199 380.66579681 263.4188385 381.03337097 C264.22569092 381.38599503 265.03254333 381.73861908 265.86384583 382.10192871 C273.27657445 385.5653577 277.89595583 391.75892386 281.07215881 399.13371277 C284.69366571 409.67322644 282.24513212 423.23432354 278.07215881 433.13371277 C277.41215881 434.12371277 276.75215881 435.11371277 276.07215881 436.13371277 C276.97836975 436.53461121 277.88458069 436.93550964 278.81825256 437.34855652 C292.78906634 443.7604126 300.15273333 451.98699055 306.07215881 466.13371277 C307.28984563 470.29289743 307.25236675 474.39301729 307.27528381 478.69621277 C307.28098389 479.52451599 307.28668396 480.35281921 307.29255676 481.20622253 C307.30198577 482.95450063 307.30853239 484.70279632 307.31239319 486.45109558 C307.3221244 489.12426061 307.3531772 491.79666469 307.38465881 494.46965027 C307.39118694 496.17016655 307.39643816 497.87068831 307.40028381 499.57121277 C307.41263062 500.36922302 307.42497742 501.16723328 307.43769836 501.98942566 C307.41997089 506.40535261 307.19055385 508.94695623 304.07215881 512.13371277 C302.05595398 512.63428402 302.05595398 512.63428402 299.70741272 512.63491821 C298.81572388 512.64475235 297.92403503 512.65458649 297.00532532 512.66471863 C295.54180634 512.65021667 295.54180634 512.65021667 294.04872131 512.63542175 C293.01922363 512.64082474 291.98972595 512.64622772 290.92903137 512.65179443 C287.51811682 512.66432546 284.10803913 512.64776103 280.69715881 512.62980652 C278.33208675 512.6299614 275.96701442 512.63144864 273.60194397 512.63421631 C268.64203184 512.63560227 263.6824082 512.62300895 258.72254944 512.6002655 C252.35660755 512.57188064 245.99114522 512.57461574 239.62516785 512.58735561 C234.74049261 512.59430202 229.85592872 512.58653534 224.9712677 512.57409859 C222.62365648 512.569574 220.27603335 512.56925603 217.92842102 512.57316399 C214.65056244 512.57606597 211.37337075 512.55961712 208.09559631 512.5377655 C207.11991699 512.54226715 206.14423767 512.5467688 205.13899231 512.55140686 C204.24730347 512.54150223 203.35561462 512.5315976 202.43690491 512.52139282 C201.66188629 512.51896293 200.88686768 512.51653303 200.08836365 512.5140295 C197.53944005 512.03322602 196.6789422 511.12804007 195.07215881 509.13371277 C192.83074573 504.65088661 193.8447914 498.5288399 193.83192444 493.54289246 C193.82234361 491.30193651 193.79138604 489.06194836 193.75965881 486.82121277 C193.64216501 470.85960176 196.60496443 458.26360742 207.70497131 446.39933777 C212.80175902 441.52122412 218.57090598 438.70712535 225.07215881 436.13371277 C224.80661194 435.60004089 224.54106506 435.06636902 224.26747131 434.51652527 C218.80625099 422.99614079 216.71408467 409.8120354 220.97840881 397.51261902 C224.85506245 389.08089736 230.84855825 384.15925151 239.07215881 380.13371277 C240.06215881 379.80371277 241.05215881 379.47371277 242.07215881 379.13371277 C242.17362044 371.96220489 242.24365038 364.79088228 242.29188538 357.61882019 C242.31199446 355.1792967 242.33928565 352.73982137 242.37391663 350.30046082 C242.42246371 346.79293429 242.44513513 343.28604534 242.46278381 339.77824402 C242.48342896 338.6884877 242.5040741 337.59873138 242.52534485 336.47595215 C242.54786808 330.44029108 242.54786808 330.44029108 240.23524475 324.96842957 C236.44019052 321.74948684 233.06078062 322.00027161 228.25753784 321.97549438 C227.56077067 321.97055641 226.86400349 321.96561843 226.14612216 321.96053082 C223.80612183 321.94514516 221.46614896 321.93679232 219.12611389 321.9283905 C217.45081337 321.91881282 215.77551527 321.9088028 214.10021973 321.89839172 C209.54683906 321.87132473 204.99344801 321.85032487 200.44003129 321.83038974 C195.68341056 321.80854126 190.92682191 321.78114701 186.17022705 321.7543335 C177.16052242 321.70439121 168.15079999 321.65945807 159.14106053 321.61631113 C148.88481669 321.56695189 138.62860503 321.51202889 128.3723923 321.45663154 C107.27234299 321.3427879 86.17226415 321.23668857 65.07215881 321.13371277 C65.40215881 340.27371277 65.73215881 359.41371277 66.07215881 379.13371277 C69.37215881 380.78371277 72.67215881 382.43371277 76.07215881 384.13371277 C83.02461004 389.30079133 87.12235976 395.66005601 88.59950256 404.17277527 C89.89452777 416.36638344 87.66106682 426.29720411 82.07215881 437.13371277 C82.61743225 437.28066589 83.16270569 437.42761902 83.72450256 437.57902527 C94.60670032 440.81578153 101.794779 446.68923862 108.07215881 456.13371277 C111.02349398 461.60135972 113.17153276 466.94697302 113.23329163 473.21208191 C113.24289917 474.00292679 113.25250671 474.79377167 113.2624054 475.60858154 C113.26878021 476.87592384 113.26878021 476.87592384 113.27528381 478.16886902 C113.28098389 479.043936 113.28668396 479.91900299 113.29255676 480.82058716 C113.30198713 482.667219 113.30853293 484.51386752 113.31239319 486.36051941 C113.32213573 489.189509 113.35319197 492.01778305 113.38465881 494.84660339 C113.39118568 496.64152096 113.39643739 498.43644371 113.40028381 500.23136902 C113.41880402 501.50174767 113.41880402 501.50174767 113.43769836 502.79779053 C113.41536173 508.66044504 113.41536173 508.66044504 111.82267761 510.85671425 C109.62458785 512.46021452 108.41344463 512.51071446 105.70741272 512.5146637 C104.36987946 512.52735291 104.36987946 512.52735291 103.00532532 512.54029846 C102.029646 512.53422577 101.05396667 512.52815308 100.04872131 512.52189636 C99.01922363 512.52715332 97.98972595 512.53241028 96.92903137 512.53782654 C93.51825389 512.55105497 90.10794124 512.54227816 86.69715881 512.53215027 C84.33208628 512.53417018 81.96701436 512.53708092 79.60194397 512.54084778 C74.64208555 512.545275 69.68238906 512.53882714 64.72254944 512.52482605 C58.35662446 512.50773413 51.9910789 512.51757316 45.62516785 512.53554344 C40.74050525 512.54637043 35.85593298 512.54293989 30.9712677 512.53516006 C28.62365169 512.53315506 26.27602754 512.5356278 23.92842102 512.54259872 C20.65059093 512.5501952 17.37338014 512.53863382 14.09559631 512.52189636 C13.11991699 512.52796906 12.14423767 512.53404175 11.13899231 512.54029846 C10.24730347 512.53183899 9.35561462 512.52337952 8.43690491 512.5146637 C7.66188629 512.51353262 6.88686768 512.51240154 6.08836365 512.51123619 C3.49449952 512.0255492 2.61789056 511.25160358 1.07215881 509.13371277 C0.76087628 506.17699896 0.62803776 503.43579877 0.63856506 500.47746277 C0.63332321 499.61995422 0.62808136 498.76244568 0.62268066 497.87895203 C0.61625365 496.05991191 0.61760624 494.24083028 0.62611389 492.42179871 C0.63454348 489.67134286 0.6060053 486.92302152 0.57411194 484.17277527 C0.51574099 469.72802063 2.77510073 458.17841785 12.84950256 447.19621277 C17.68882534 442.60429913 25.13793982 437.13371277 32.07215881 437.13371277 C31.56555725 436.15144714 31.56555725 436.15144714 31.04872131 435.14933777 C25.41368359 423.61868255 22.86956908 410.89332889 26.97840881 398.37199402 C30.99994251 389.50016462 37.17483126 383.37096014 46.18934631 379.72746277 C48.07215881 379.13371277 48.07215881 379.13371277 50.07215881 379.13371277 C50.07215881 359.99371277 50.07215881 340.85371277 50.07215881 321.13371277 C27.8627869 321.19655212 5.65356877 321.27169734 -16.55567455 321.36942768 C-26.86762661 321.41440827 -37.17954396 321.45381772 -47.49156189 321.48014832 C-56.47869457 321.50311006 -65.46571762 321.53648765 -74.45276338 321.58241433 C-79.21208822 321.60637116 -83.97130431 321.62508381 -88.7306881 321.63132668 C-93.20980448 321.6373664 -97.68864252 321.65732592 -102.16765594 321.68798828 C-103.8119571 321.69678636 -105.45629461 321.70048743 -107.10061836 321.69872093 C-109.34565053 321.69707051 -111.58983181 321.71374649 -113.83474731 321.73498535 C-115.09115115 321.73959432 -116.34755499 321.74420328 -117.64203167 321.74895191 C-121.22296527 322.16827113 -123.07819007 322.96209819 -125.92784119 325.13371277 C-128.11755865 328.41828896 -128.17368021 329.35131087 -128.15489197 333.15592957 C-128.15474091 334.17676132 -128.15458984 335.19759308 -128.1544342 336.24935913 C-128.14411163 337.34943802 -128.13378906 338.44951691 -128.12315369 339.58293152 C-128.11890884 341.27456169 -128.11890884 341.27456169 -128.11457825 343.00036621 C-128.10337034 346.60742235 -128.07826442 350.21423149 -128.05284119 353.82121277 C-128.04281219 356.26456856 -128.0336862 358.70792824 -128.02549744 361.15129089 C-128.00342901 367.145516 -127.96994536 373.13959674 -127.92784119 379.13371277 C-127.10219666 379.5276825 -126.27655212 379.92165222 -125.42588806 380.32756042 C-124.34372009 380.85398132 -123.26155212 381.38040222 -122.14659119 381.92277527 C-121.07344666 382.440495 -120.00030212 382.95821472 -118.89463806 383.49162292 C-111.85542875 387.38774882 -107.7242405 394.44709773 -105.33799744 402.00090027 C-103.11915334 413.53888959 -105.4683764 425.87236579 -110.92784119 436.13371277 C-110.17760681 436.46242371 -109.42737244 436.79113464 -108.65440369 437.12980652 C-97.29829864 442.40739186 -87.74289084 449.5558455 -83.00205994 461.45793152 C-80.72682244 467.98171677 -79.77078826 473.99996618 -79.75987244 480.91886902 C-79.75487984 482.02602516 -79.75487984 482.02602516 -79.74978638 483.1555481 C-79.74474244 484.70954264 -79.74237727 486.26354794 -79.74253845 487.81755066 C-79.74034508 490.19199875 -79.72214422 492.56598694 -79.70323181 494.94035339 C-79.70029871 496.45402369 -79.69831336 497.96769618 -79.69737244 499.48136902 C-79.69018692 500.1887471 -79.6830014 500.89612518 -79.67559814 501.62493896 C-79.69247736 505.26927458 -79.79838292 508.09611006 -81.92784119 511.13371277 C-84.24606972 512.29282703 -85.59121951 512.26666834 -88.17233276 512.28088379 C-89.06264694 512.28803909 -89.95296112 512.2951944 -90.87025452 512.30256653 C-92.33916641 512.30659988 -92.33916641 512.30659988 -93.8377533 512.31071472 C-95.38178078 512.32057152 -95.38178078 512.32057152 -96.95700073 512.33062744 C-100.3730628 512.35038558 -103.78908093 512.36202688 -107.20518494 512.37199402 C-108.95099444 512.37810731 -108.95099444 512.37810731 -110.73207283 512.3843441 C-116.88871713 512.4052127 -123.04533907 512.41951265 -129.20201111 512.42887878 C-135.57583752 512.43996228 -141.94931664 512.47438256 -148.32301998 512.51405048 C-153.21195141 512.54013035 -158.10079889 512.54856279 -162.98979378 512.55216026 C-165.34022436 512.55704632 -167.69065071 512.56871715 -170.04101372 512.58719826 C-173.32380527 512.6114124 -176.60568201 512.61065731 -179.88853455 512.60368347 C-180.86578491 512.61649353 -181.84303528 512.62930359 -182.84989929 512.64250183 C-184.1896003 512.63208611 -184.1896003 512.63208611 -185.55636597 512.62145996 C-186.3326834 512.62384831 -187.10900084 512.62623667 -187.90884304 512.6286974 C-189.92784119 512.13371277 -189.92784119 512.13371277 -191.67580509 510.33772564 C-193.57982716 506.98599388 -193.37569363 503.60658388 -193.36143494 499.85246277 C-193.36667679 499.04313293 -193.37191864 498.2338031 -193.37731934 497.39994812 C-193.38373765 495.68523807 -193.38240496 493.97048398 -193.37388611 492.25578308 C-193.36545941 489.66998986 -193.39400101 487.08647057 -193.42588806 484.50090027 C-193.48225147 471.36727375 -191.98587068 460.27165332 -182.92784119 450.13371277 C-182.449599 449.54074402 -181.97135681 448.94777527 -181.47862244 448.33683777 C-176.18869143 442.31404478 -169.08856942 439.40122954 -161.92784119 436.13371277 C-162.54659119 434.97871277 -163.16534119 433.82371277 -163.80284119 432.63371277 C-168.96270928 423.001959 -169.5416451 410.66157651 -167.27549744 400.09074402 C-164.31584965 391.89772762 -158.53529093 385.34208922 -150.92784119 381.13371277 C-148.93554845 380.44435504 -146.93630897 379.77441678 -144.92784119 379.13371277 C-144.92197495 378.48748962 -144.9161087 377.84126648 -144.9100647 377.17546082 C-144.84594208 370.42639836 -144.76147383 363.67780442 -144.66539001 356.92912292 C-144.63221383 354.41323539 -144.60415935 351.89727474 -144.58140564 349.38127136 C-144.547726 345.75676933 -144.49540127 342.13293297 -144.43955994 338.50871277 C-144.43317001 337.39069275 -144.42678009 336.27267273 -144.42019653 335.12077332 C-144.25397107 326.21504646 -142.76900561 319.38602625 -136.60752869 312.67277527 C-130.63289297 307.19834161 -124.72568773 306.00777772 -116.84111023 306.01345825 C-116.12715442 306.01260383 -115.41319861 306.0117494 -114.67760777 306.01086909 C-112.28540745 306.00922204 -109.89327724 306.01472297 -107.50108337 306.02018738 C-105.78622947 306.02046944 -104.07137544 306.02031114 -102.35652161 306.01974487 C-97.69987163 306.01945765 -93.04324735 306.02534227 -88.38660336 306.03231883 C-83.52056953 306.03856485 -78.65453514 306.03915716 -73.78849792 306.04034424 C-64.57339076 306.04345386 -55.35829543 306.0516623 -46.14319348 306.06169373 C-35.65237086 306.07286629 -25.16154767 306.0783682 -14.67072058 306.08338916 C6.9102473 306.0938452 28.49119894 306.11218612 50.07215881 306.13371277 C50.07215881 291.94371277 50.07215881 277.75371277 50.07215881 263.13371277 C45.58235413 263.16851746 41.09254944 263.20332214 36.46669006 263.23918152 C32.88144939 263.25848127 29.29622343 263.27474723 25.71096039 263.28896332 C21.92915381 263.30478995 18.1475497 263.32593141 14.36585999 263.36003113 C10.72189013 263.39268253 7.07811634 263.41057787 3.43401146 263.4183445 C2.04536033 263.42387769 0.65671966 263.4346828 -0.73184776 263.45090294 C-2.68012864 263.47275133 -4.62860776 263.47393881 -6.57701111 263.47428894 C-7.68509628 263.48095078 -8.79318146 263.48761261 -9.93484497 263.49447632 C-13.61342878 263.05107484 -16.28956441 261.77198955 -18.92784119 259.13371277 C-19.00028172 257.11407078 -19.01161307 255.09204153 -18.99034119 253.07121277 C-18.98131775 251.96648621 -18.97229431 250.86175964 -18.96299744 249.72355652 C-18.94559509 248.44158386 -18.94559509 248.44158386 -18.92784119 247.13371277 C-19.9315123 247.14259521 -20.93518341 247.15147766 -21.9692688 247.16062927 C-31.43012845 247.24173285 -40.89091753 247.30168667 -50.35204601 247.34096146 C-55.21608156 247.36183194 -60.07983636 247.39013977 -64.94371033 247.43547058 C-69.63807241 247.47894752 -74.33216453 247.50285394 -79.02671242 247.51322174 C-80.81729189 247.52060979 -82.60785667 247.53503702 -84.39832115 247.556633 C-86.90742742 247.58569202 -89.41541975 247.5896678 -91.92466736 247.58781433 C-92.6641008 247.60219543 -93.40353424 247.61657654 -94.16537476 247.63139343 C-97.4813791 247.60490731 -99.71007443 247.2555888 -102.61835098 245.6279335 C-105.79883332 242.19305208 -105.62199074 239.19702998 -105.55603027 234.74516296 C-105.56312466 233.89110508 -105.57021905 233.0370472 -105.57752842 232.15710878 C-105.59515599 229.29013084 -105.57697964 226.42450009 -105.5589447 223.55754089 C-105.5640817 221.50434755 -105.57136131 219.4511586 -105.58062744 217.39797974 C-105.59917748 211.81738213 -105.58617995 206.23726089 -105.56653714 200.65668297 C-105.55017916 194.82223814 -105.55895956 188.98782417 -105.5640564 183.15336609 C-105.56858054 173.35458242 -105.55268755 163.55598944 -105.52476501 153.75724792 C-105.49271178 142.42138653 -105.49272787 131.08586913 -105.50997978 119.74998331 C-105.52583216 108.85444727 -105.51911959 97.95903758 -105.50204277 87.06350708 C-105.49516217 82.42241054 -105.49621509 77.78141498 -105.50358772 73.14031982 C-105.51123716 67.6770173 -105.49916808 62.21410721 -105.47173882 56.75087166 C-105.46483984 54.74331388 -105.46477313 52.73571955 -105.47195435 50.72816277 C-105.48061419 47.99242166 -105.46475215 45.25790135 -105.44250488 42.52226257 C-105.45074565 41.72343422 -105.45898642 40.92460588 -105.4674769 40.10157061 C-105.41480623 36.60442592 -105.20377362 34.51953647 -103.14403057 31.63949203 C-100.79038697 30.04032016 -99.75506327 29.63738915 -96.95414734 29.6526947 C-95.78474609 29.64444672 -95.78474609 29.64444672 -94.59172058 29.6360321 C-93.74583374 29.65041321 -92.8999469 29.66479431 -92.02842712 29.67961121 C-91.13051453 29.6790271 -90.23260193 29.67844299 -89.30747986 29.67784119 C-86.3419976 29.68062609 -83.37752267 29.71173743 -80.41221619 29.74308777 C-78.35527597 29.75054871 -76.29832865 29.75624233 -74.24137878 29.76023865 C-68.82921197 29.77550649 -63.41747497 29.81479851 -58.00547791 29.85905457 C-52.48226232 29.89998228 -46.95897723 29.91824434 -41.43565369 29.93840027 C-30.59952741 29.98129141 -19.76372005 30.0495569 -8.92784119 30.13371277 C-8.93831482 29.39733582 -8.94878845 28.66095886 -8.95957947 27.90226746 C-9.00117821 24.562784 -9.02717983 21.22335511 -9.05284119 17.88371277 C-9.069599 16.72484558 -9.08635681 15.56597839 -9.10362244 14.37199402 C-9.11006775 13.25695496 -9.11651306 12.14191589 -9.12315369 10.99308777 C-9.13362732 9.96667175 -9.14410095 8.94025574 -9.15489197 7.88273621 C-8.923557 5.08184187 -8.46024912 3.46964307 -6.92784119 1.13371277 C-4.44187877 -0.10926844 -2.78184545 0.00513046 0 0 Z M6.07215881 14.13371277 C6.07215881 65.61371277 6.07215881 117.09371277 6.07215881 170.13371277 C10.36215881 168.15371277 14.65215881 166.17371277 19.07215881 164.13371277 C21.72586199 163.09980244 24.38652117 162.08158488 27.07215881 161.13371277 C26.79243225 160.57683777 26.51270569 160.01996277 26.22450256 159.44621277 C25.84422913 158.68308777 25.46395569 157.91996277 25.07215881 157.13371277 C24.68157288 156.34996277 24.29098694 155.56621277 23.88856506 154.75871277 C16.98584055 140.30814931 13.40914275 122.31479666 18.82215881 106.69621277 C20.52654712 102.89734729 22.54401821 99.45189731 25.07215881 96.13371277 C25.67028381 95.32933777 26.26840881 94.52496277 26.88465881 93.69621277 C33.96986388 85.39640112 44.07162246 82.00094648 54.63075256 80.85636902 C66.00809011 80.40127552 76.27041378 83.97014741 85.07215881 91.13371277 C95.02448061 101.27102196 97.35951288 112.12414781 97.39125061 125.78312683 C97.24535602 136.78828558 95.14512437 146.9560214 89.02528381 156.30168152 C87.76447122 158.38093939 87.76447122 158.38093939 88.07215881 162.13371277 C89.23231506 162.49722839 89.23231506 162.49722839 90.41590881 162.86808777 C91.45747131 163.20324402 92.49903381 163.53840027 93.57215881 163.88371277 C94.59309631 164.20855652 95.61403381 164.53340027 96.66590881 164.86808777 C100.59137011 166.32663073 104.32659141 168.26092907 108.07215881 170.13371277 C108.07215881 118.65371277 108.07215881 67.17371277 108.07215881 14.13371277 C74.41215881 14.13371277 40.75215881 14.13371277 6.07215881 14.13371277 Z M34.46278381 107.21574402 C29.25098077 115.80936309 29.89654116 126.36900893 31.84169006 135.90715027 C34.86431224 146.43213743 40.00787307 153.85796087 49.44715881 159.57121277 C56.12156755 161.00144321 62.20892218 160.9314202 68.19715881 157.44230652 C76.38669767 151.72669086 80.19177769 144.40210903 82.68153381 134.77824402 C84.04126899 125.5728369 84.64352922 115.39746117 79.68153381 107.21574402 C74.16852072 100.08361786 68.01526145 96.08171332 59.04090881 94.85636902 C48.64696101 94.34079621 40.68219098 99.16976339 34.46278381 107.21574402 Z M-147.67784119 397.82121277 C-153.4163748 404.4425977 -153.48928331 409.40128258 -152.92784119 418.13371277 C-151.60927757 424.79439808 -149.01750583 429.57370492 -143.74034119 433.94621277 C-139.66840597 435.66547431 -136.26535056 436.13689713 -131.92784119 435.13371277 C-125.14354149 431.14778972 -122.36570648 426.10088379 -120.24034119 418.75871277 C-119.42038935 411.87111731 -119.35119862 406.33322655 -122.92784119 400.13371277 C-126.62525958 396.43629437 -129.8374236 394.35098654 -134.92784119 393.13371277 C-140.11747939 393.13371277 -143.94150222 394.21831448 -147.67784119 397.82121277 Z M45.32215881 398.38371277 C41.03933664 403.6182732 39.78072048 407.26027444 40.07215881 413.94621277 C40.92422256 421.32767805 43.33772802 427.5264648 48.75965881 432.69621277 C52.87622668 435.25516036 56.2628737 435.75397571 61.07215881 435.13371277 C66.60402125 432.53048338 69.58002097 428.57706648 72.07215881 423.13371277 C74.34054477 416.16011041 75.34402452 408.63027742 71.94325256 401.89933777 C68.96522028 397.45257567 66.09085118 395.14373441 61.00184631 393.50871277 C54.76075274 392.29586867 50.09710965 394.47693481 45.32215881 398.38371277 Z M239.52919006 397.49699402 C235.07069803 402.55692486 233.63278484 407.07798326 233.82997131 413.67277527 C234.67653832 422.27498841 237.71360694 428.26545887 244.07215881 434.13371277 C247.58121499 435.88824085 251.24281175 435.67358793 255.07215881 435.13371277 C260.38646906 432.92114002 263.01693988 429.21147609 265.34559631 424.09855652 C267.77222747 417.53621526 268.42347407 409.61235763 266.38856506 402.86808777 C264.18676699 398.66548563 261.2541083 396.22468751 257.07215881 394.13371277 C250.56197925 392.55866933 244.75642239 392.87850268 239.52919006 397.49699402 Z " fill="#1865C1" transform="translate(198.92784118652344,-0.1337127685546875)"/>
<path d="M0 0 C27.39 0 54.78 0 83 0 C83 62.04 83 124.08 83 188 C59.24 188 35.48 188 11 188 C10.67 181.4 10.34 174.8 10 168 C7.84337763 156.91840433 7.84337763 156.91840433 2.95346069 147.14506531 C-0.76092492 140.36973519 -0.8092887 134.40460629 -0.68115234 126.80786133 C-0.67945589 125.41709467 -0.68041771 124.02632265 -0.68380737 122.63555908 C-0.68551505 118.894112 -0.65046855 115.15384066 -0.60836363 111.41266465 C-0.57062148 107.49031575 -0.56731292 103.567934 -0.56021118 99.64543152 C-0.54163074 92.23297851 -0.49248721 84.82106227 -0.43211424 77.40884465 C-0.35223347 67.38195242 -0.32006746 57.35491134 -0.28510094 47.32778072 C-0.22883869 31.55145247 -0.10926226 15.77625645 0 0 Z " fill="#81D9F1" transform="translate(321,44)"/>
<path d="M0 0 C27.39 0 54.78 0 83 0 C83.28212124 34.79495288 83.28212124 34.79495288 83.34179688 49.4375 C83.38324396 59.52597114 83.43182112 69.61403139 83.52807617 79.70214844 C83.59816223 87.05114047 83.6430817 94.39979741 83.65861946 101.74911439 C83.66769281 105.63555003 83.688796 109.5210276 83.7401104 113.40715408 C83.78816174 117.07641696 83.80217535 120.74434127 83.79175377 124.41388893 C83.79455267 126.37945916 83.83194038 128.3448886 83.87094116 130.31007385 C83.80235968 138.90278402 81.81812542 144.55910522 77.68641758 151.90520287 C71.56346206 163.14162818 72.6051885 175.29104158 72 188 C48.24 188 24.48 188 0 188 C0 125.96 0 63.92 0 0 Z " fill="#81D9F1" transform="translate(108,44)"/>
<path d="M0 0 C1.7948735 -0.00929787 1.7948735 -0.00929787 3.62600708 -0.01878357 C6.14210197 -0.02584682 8.65824395 -0.02276941 11.17431641 -0.01000977 C14.99079807 0.00384449 18.80481875 -0.03026053 22.62109375 -0.06835938 C25.08072976 -0.0693109 27.54036879 -0.06744998 30 -0.0625 C31.12332733 -0.07575821 32.24665466 -0.08901642 33.40402222 -0.10267639 C46.12828598 0.04434878 57.12939764 4.49763085 66.1328125 13.56640625 C73.95422216 23.07710526 77.31080219 32.95319435 77.23046875 45.1484375 C77.2290538 45.96261642 77.22763885 46.77679535 77.22618103 47.61564636 C77.22060567 50.20343781 77.20805774 52.79114117 77.1953125 55.37890625 C77.19029431 57.13867062 77.18573196 58.89843636 77.18164062 60.65820312 C77.17149731 64.96099834 77.1519172 69.26360425 77.1328125 73.56640625 C71.5228125 73.56640625 65.9128125 73.56640625 60.1328125 73.56640625 C60.07673828 71.01986328 60.07673828 71.01986328 60.01953125 68.421875 C59.95388251 66.19919625 59.8874348 63.97654099 59.8203125 61.75390625 C59.79775391 60.63435547 59.77519531 59.51480469 59.75195312 58.36132812 C59.71650391 57.28818359 59.68105469 56.21503906 59.64453125 55.109375 C59.61834717 54.1196167 59.59216309 53.1298584 59.56518555 52.11010742 C59.31746355 49.5447165 59.31746355 49.5447165 57.82348633 47.7121582 C55.98117453 46.22117054 55.98117453 46.22117054 52.5703125 46.69140625 C48.87838856 47.22274558 48.87838856 47.22274558 47.1328125 50.56640625 C46.8028125 58.15640625 46.4728125 65.74640625 46.1328125 73.56640625 C25.6728125 73.56640625 5.2128125 73.56640625 -15.8671875 73.56640625 C-16.3621875 62.18140625 -16.3621875 62.18140625 -16.8671875 50.56640625 C-20.23554286 46.37630654 -20.23554286 46.37630654 -23.4296875 46.25390625 C-26.00139801 46.50390872 -26.00139801 46.50390872 -28.8671875 47.56640625 C-29.1971875 56.14640625 -29.5271875 64.72640625 -29.8671875 73.56640625 C-35.4771875 73.56640625 -41.0871875 73.56640625 -46.8671875 73.56640625 C-46.93648279 68.47961851 -46.99608513 63.39450283 -47.03198242 58.30761719 C-47.04696425 56.58132341 -47.06735689 54.85506699 -47.09350586 53.12890625 C-47.31610879 38.0442839 -45.9556999 24.84441081 -35.42578125 13.03515625 C-25.12307551 3.32634082 -13.92205196 -0.06124982 0 0 Z " fill="#82DAF1" transform="translate(240.8671875,174.43359375)"/>
<path d="M0 0 C0.86083694 -0.00807175 1.72167389 -0.01614349 2.6085968 -0.02445984 C4.43004357 -0.03827374 6.25151593 -0.04900791 8.07299805 -0.05688477 C9.92431289 -0.06838563 11.77559507 -0.08880739 13.62670898 -0.1184082 C16.31386653 -0.1613509 19.00004072 -0.17729151 21.6875 -0.1875 C22.91142708 -0.21376213 22.91142708 -0.21376213 24.16007996 -0.24055481 C33.04666878 -0.20753015 39.99203022 3.33238388 46.44921875 9.30078125 C56.34708547 20.40788961 53.17578125 33.49256971 53.17578125 48.23828125 C25.45578125 48.23828125 -2.26421875 48.23828125 -30.82421875 48.23828125 C-30.82421875 16.80319541 -30.82421875 16.80319541 -21.69140625 6.96484375 C-15.15381246 0.91962104 -8.60325021 0.07693226 0 0 Z " fill="#82DAF1" transform="translate(244.82421875,449.76171875)"/>
<path d="M0 0 C1.28982033 -0.01210762 1.28982033 -0.01210762 2.60569763 -0.02445984 C4.42892447 -0.0382924 6.25217711 -0.04901826 8.07543945 -0.05688477 C9.92675443 -0.06836353 11.7780374 -0.08874976 13.62915039 -0.1184082 C34.6553035 -0.45520296 34.6553035 -0.45520296 43.89453125 6.0625 C44.48492187 6.67738281 45.0753125 7.29226563 45.68359375 7.92578125 C46.28945312 8.52777344 46.8953125 9.12976563 47.51953125 9.75 C56.76742503 22.61224528 53.30859375 30.65839349 53.30859375 48.23828125 C25.58859375 48.23828125 -2.13140625 48.23828125 -30.69140625 48.23828125 C-30.69140625 16.64213967 -30.69140625 16.64213967 -22.47265625 7.7734375 C-15.6540489 1.89687459 -8.81970776 0.07867509 0 0 Z " fill="#82DAF1" transform="translate(50.69140625,449.76171875)"/>
<path d="M0 0 C0.85139053 -0.0038269 1.70278107 -0.00765381 2.57997131 -0.01159668 C4.36737257 -0.0142993 6.15481451 -0.00705473 7.94213867 0.00976562 C10.65049077 0.0311736 13.35618278 0.0099224 16.06445312 -0.015625 C27.43909896 -0.03409746 37.41644549 0.57607055 46.1875 8.68359375 C56.17107323 20.69944652 53.72265625 32.63007362 53.72265625 48.53125 C26.00265625 48.53125 -1.71734375 48.53125 -30.27734375 48.53125 C-30.27734375 17.49278846 -30.27734375 17.49278846 -22.02734375 7.65625 C-15.61733557 1.77114444 -8.52069031 -0.08654982 0 0 Z " fill="#82DAF1" transform="translate(438.27734375,449.46875)"/>
<path d="M0 0 C1.06154297 -0.0309375 1.06154297 -0.0309375 2.14453125 -0.0625 C6.68720455 -0.09633742 9.48639788 0.51067217 13.125 3.25 C14.99764676 5.12264676 14.36107378 7.74759947 14.453125 10.2421875 C14.02067139 12.88839175 13.22534116 13.60978807 11.125 15.25 C8.8125 15.63818359 8.8125 15.63818359 6.125 15.6484375 C5.155625 15.65230469 4.18625 15.65617187 3.1875 15.66015625 C2.176875 15.64855469 1.16625 15.63695312 0.125 15.625 C-0.885625 15.63660156 -1.89625 15.64820313 -2.9375 15.66015625 C-3.906875 15.65628906 -4.87625 15.65242188 -5.875 15.6484375 C-6.761875 15.64505371 -7.64875 15.64166992 -8.5625 15.63818359 C-11.31844765 15.17556147 -12.20425607 14.4496222 -13.875 12.25 C-14.43118667 9.545406 -14.30129934 6.97263177 -13.875 4.25 C-10.62977974 -0.54056324 -5.25156497 0.03784912 0 0 Z " fill="#1764C1" transform="translate(276.875,27.75)"/>
<path d="M0 0 C1.30710937 -0.01417969 2.61421875 -0.02835938 3.9609375 -0.04296875 C8.52590776 0.24416691 11.37499713 0.93749713 14.625 4.1875 C15.19968133 11.42848474 15.19968133 11.42848474 13.41479492 13.78588867 C11.05141755 15.63667977 9.60575606 15.5745647 6.625 15.5859375 C5.655625 15.58980469 4.68625 15.59367187 3.6875 15.59765625 C2.676875 15.58605469 1.66625 15.57445313 0.625 15.5625 C-0.385625 15.57410156 -1.39625 15.58570312 -2.4375 15.59765625 C-3.406875 15.59378906 -4.37625 15.58992188 -5.375 15.5859375 C-6.261875 15.58255371 -7.14875 15.57916992 -8.0625 15.57568359 C-10.81844765 15.11306147 -11.70425607 14.3871222 -13.375 12.1875 C-13.93118667 9.482906 -13.80129934 6.91013177 -13.375 4.1875 C-10.19133531 -0.51219549 -5.19996204 0.02554009 0 0 Z " fill="#1764C1" transform="translate(276.375,51.8125)"/>
<path d="M0 0 C1.29808594 -0.02578125 2.59617188 -0.0515625 3.93359375 -0.078125 C8.01375442 0.29080234 10.64915262 1.33665262 13.5625 4.25 C14.03798348 11.61999399 14.03798348 11.61999399 12.35449219 13.85058594 C9.98936962 15.69757266 8.54249781 15.6370676 5.5625 15.6484375 C4.593125 15.65230469 3.62375 15.65617187 2.625 15.66015625 C1.614375 15.64855469 0.60375 15.63695313 -0.4375 15.625 C-1.448125 15.63660156 -2.45875 15.64820312 -3.5 15.66015625 C-4.469375 15.65628906 -5.43875 15.65242188 -6.4375 15.6484375 C-7.324375 15.64505371 -8.21125 15.64166992 -9.125 15.63818359 C-11.88094765 15.17556147 -12.76675607 14.4496222 -14.4375 12.25 C-15.15899304 8.74156325 -15.14854274 5.35211625 -13.1875 2.3125 C-9.09422022 -0.17270558 -4.68584713 0.05572861 0 0 Z " fill="#1764C1" transform="translate(235.4375,51.75)"/>
<path d="M0 0 C1.29808594 -0.02578125 2.59617188 -0.0515625 3.93359375 -0.078125 C8.01375442 0.29080234 10.64915262 1.33665262 13.5625 4.25 C14.03798348 11.61999399 14.03798348 11.61999399 12.35449219 13.85058594 C9.98936962 15.69757266 8.54249781 15.6370676 5.5625 15.6484375 C4.593125 15.65230469 3.62375 15.65617187 2.625 15.66015625 C1.614375 15.64855469 0.60375 15.63695312 -0.4375 15.625 C-1.448125 15.63660156 -2.45875 15.64820313 -3.5 15.66015625 C-4.469375 15.65628906 -5.43875 15.65242188 -6.4375 15.6484375 C-7.324375 15.64505371 -8.21125 15.64166992 -9.125 15.63818359 C-11.88094765 15.17556147 -12.76675607 14.4496222 -14.4375 12.25 C-15.15899304 8.74156325 -15.14854274 5.35211625 -13.1875 2.3125 C-9.09422022 -0.17270558 -4.68584713 0.05572861 0 0 Z " fill="#1764C1" transform="translate(235.4375,27.75)"/>
<path d="M0 0 C1.216875 0.00386719 2.43375 0.00773438 3.6875 0.01171875 C6.75108988 0.28989849 8.48542359 0.60186268 11 2.3125 C12.52491998 5.36233996 12.23562548 7.9548369 12 11.3125 C11.01171875 13.0078125 11.01171875 13.0078125 9 14.3125 C6.09406473 14.63798821 3.46441984 14.77680195 0.5625 14.75 C-0.5831543 14.7799707 -0.5831543 14.7799707 -1.75195312 14.81054688 C-5.49618124 14.80728819 -7.42023002 14.72521761 -10.53515625 12.5078125 C-12 10.3125 -12 10.3125 -12 6.75 C-10.09737667 0.20973229 -6.35732926 -0.08754797 0 0 Z " fill="#1B68C2" transform="translate(346,178.6875)"/>
<path d="M0 0 C1.216875 0.00386719 2.43375 0.00773438 3.6875 0.01171875 C6.75108988 0.28989849 8.48542359 0.60186268 11 2.3125 C12.52491998 5.36233996 12.23562548 7.9548369 12 11.3125 C11.01171875 13.0078125 11.01171875 13.0078125 9 14.3125 C6.09406473 14.63798821 3.46441984 14.77680195 0.5625 14.75 C-0.5831543 14.7799707 -0.5831543 14.7799707 -1.75195312 14.81054688 C-5.49618124 14.80728819 -7.42023002 14.72521761 -10.53515625 12.5078125 C-12 10.3125 -12 10.3125 -12 6.75 C-10.09737667 0.20973229 -6.35732926 -0.08754797 0 0 Z " fill="#1B68C2" transform="translate(346,154.6875)"/>
<path d="M0 0 C3.05217042 1.2842151 3.37697323 1.94870967 5 5 C5 8.6875 5 8.6875 4 12 C0.15681569 14.56212287 -3.04693955 14.33108539 -7.5 14.3125 C-8.65822266 14.33666992 -8.65822266 14.33666992 -9.83984375 14.36132812 C-15.51669879 14.36624741 -15.51669879 14.36624741 -17.72070312 12.69604492 C-19.84049708 9.88569977 -19.36238489 7.38225897 -19 4 C-14.63692336 -1.94964996 -6.60117681 -0.66316672 0 0 Z " fill="#1B69C2" transform="translate(173,155)"/>
<path d="M0 0 C1.216875 0.00386719 2.43375 0.00773438 3.6875 0.01171875 C6.75108988 0.28989849 8.48542359 0.60186268 11 2.3125 C12.52491998 5.36233996 12.23562548 7.9548369 12 11.3125 C11.01171875 13.0078125 11.01171875 13.0078125 9 14.3125 C6.09406473 14.63798821 3.46441984 14.77680195 0.5625 14.75 C-0.5831543 14.7799707 -0.5831543 14.7799707 -1.75195312 14.81054688 C-5.49618124 14.80728819 -7.42023002 14.72521761 -10.53515625 12.5078125 C-12 10.3125 -12 10.3125 -12 6.75 C-10.09737667 0.20973229 -6.35732926 -0.08754797 0 0 Z " fill="#1B68C2" transform="translate(346,130.6875)"/>
<path d="M0 0 C3.05217042 1.2842151 3.37697323 1.94870967 5 5 C5 8.6875 5 8.6875 4 12 C0.15681569 14.56212287 -3.04693955 14.33108539 -7.5 14.3125 C-8.65822266 14.33666992 -8.65822266 14.33666992 -9.83984375 14.36132812 C-15.51669879 14.36624741 -15.51669879 14.36624741 -17.72070312 12.69604492 C-19.84049708 9.88569977 -19.36238489 7.38225897 -19 4 C-14.63692336 -1.94964996 -6.60117681 -0.66316672 0 0 Z " fill="#1B69C2" transform="translate(173,131)"/>
<path d="M0 0 C1.216875 0.00386719 2.43375 0.00773437 3.6875 0.01171875 C6.75108988 0.28989849 8.48542359 0.60186268 11 2.3125 C12.52491998 5.36233996 12.23562548 7.9548369 12 11.3125 C11.01171875 13.0078125 11.01171875 13.0078125 9 14.3125 C6.09406473 14.63798821 3.46441984 14.77680195 0.5625 14.75 C-0.5831543 14.7799707 -0.5831543 14.7799707 -1.75195312 14.81054688 C-5.49618124 14.80728819 -7.42023002 14.72521761 -10.53515625 12.5078125 C-12 10.3125 -12 10.3125 -12 6.75 C-10.09737667 0.20973229 -6.35732926 -0.08754797 0 0 Z " fill="#1B68C2" transform="translate(346,106.6875)"/>
<path d="M0 0 C3.05217042 1.2842151 3.37697323 1.94870967 5 5 C5 8.6875 5 8.6875 4 12 C0.15681569 14.56212287 -3.04693955 14.33108539 -7.5 14.3125 C-8.65822266 14.33666992 -8.65822266 14.33666992 -9.83984375 14.36132812 C-15.51669879 14.36624741 -15.51669879 14.36624741 -17.72070312 12.69604492 C-19.84049708 9.88569977 -19.36238489 7.38225897 -19 4 C-14.63692336 -1.94964996 -6.60117681 -0.66316672 0 0 Z " fill="#1B69C2" transform="translate(173,107)"/>
<path d="M0 0 C1.216875 0.00386719 2.43375 0.00773437 3.6875 0.01171875 C6.75108988 0.28989849 8.48542359 0.60186268 11 2.3125 C12.52491998 5.36233996 12.23562548 7.9548369 12 11.3125 C11.01171875 13.0078125 11.01171875 13.0078125 9 14.3125 C6.09406473 14.63798821 3.46441984 14.77680195 0.5625 14.75 C-0.5831543 14.7799707 -0.5831543 14.7799707 -1.75195312 14.81054688 C-5.49618124 14.80728819 -7.42023002 14.72521761 -10.53515625 12.5078125 C-12 10.3125 -12 10.3125 -12 6.75 C-10.09737667 0.20973229 -6.35732926 -0.08754797 0 0 Z " fill="#1B68C2" transform="translate(346,82.6875)"/>
<path d="M0 0 C3.05217042 1.2842151 3.37697323 1.94870967 5 5 C5 8.6875 5 8.6875 4 12 C0.15681569 14.56212287 -3.04693955 14.33108539 -7.5 14.3125 C-8.65822266 14.33666992 -8.65822266 14.33666992 -9.83984375 14.36132812 C-15.51669879 14.36624741 -15.51669879 14.36624741 -17.72070312 12.69604492 C-19.84049708 9.88569977 -19.36238489 7.38225897 -19 4 C-14.63692336 -1.94964996 -6.60117681 -0.66316672 0 0 Z " fill="#1B69C2" transform="translate(173,83)"/>
<path d="M0 0 C1.216875 0.00386719 2.43375 0.00773437 3.6875 0.01171875 C6.75108988 0.28989849 8.48542359 0.60186268 11 2.3125 C12.52491998 5.36233996 12.23562548 7.9548369 12 11.3125 C11.01171875 13.0078125 11.01171875 13.0078125 9 14.3125 C6.09406473 14.63798821 3.46441984 14.77680195 0.5625 14.75 C-0.5831543 14.7799707 -0.5831543 14.7799707 -1.75195312 14.81054688 C-5.49618124 14.80728819 -7.42023002 14.72521761 -10.53515625 12.5078125 C-12 10.3125 -12 10.3125 -12 6.75 C-10.09737667 0.20973229 -6.35732926 -0.08754797 0 0 Z " fill="#1B68C2" transform="translate(346,58.6875)"/>
<path d="M0 0 C3.05217042 1.2842151 3.37697323 1.94870967 5 5 C5 8.6875 5 8.6875 4 12 C0.15681569 14.56212287 -3.04693955 14.33108539 -7.5 14.3125 C-8.65822266 14.33666992 -8.65822266 14.33666992 -9.83984375 14.36132812 C-15.51669879 14.36624741 -15.51669879 14.36624741 -17.72070312 12.69604492 C-19.84049708 9.88569977 -19.36238489 7.38225897 -19 4 C-14.63692336 -1.94964996 -6.60117681 -0.66316672 0 0 Z " fill="#1B68C2" transform="translate(173,59)"/>
<path d="M0 0 C1.20527344 -0.01933594 2.41054688 -0.03867188 3.65234375 -0.05859375 C7.64405297 0.52210163 9.30026499 1.53586248 12.0625 4.4375 C12.53320774 7.79129263 12.83097393 10.14574615 11.05859375 13.125 C7.83160168 15.2468578 4.35775247 14.90947546 0.625 14.875 C-0.5206543 14.9049707 -0.5206543 14.9049707 -1.68945312 14.93554688 C-5.43368124 14.93228819 -7.35773002 14.85021761 -10.47265625 12.6328125 C-11.9375 10.4375 -11.9375 10.4375 -11.9375 6.875 C-10.05518744 0.40455059 -6.31128937 0.00673563 0 0 Z " fill="#1B68C2" transform="translate(345.9375,202.5625)"/>
<path d="M0 0 C3.04067759 1.30397179 3.37649112 1.9478033 5 5 C5 8.6875 5 8.6875 4 12 C0.15681569 14.56212287 -3.04693955 14.33108539 -7.5 14.3125 C-8.65822266 14.33666992 -8.65822266 14.33666992 -9.83984375 14.36132812 C-15.52032595 14.36625055 -15.52032595 14.36625055 -17.71289062 12.69213867 C-19 11 -19 11 -19.5 7.5625 C-19 4 -19 4 -16.90625 1.8125 C-11.67921676 -1.44737019 -5.94493154 -0.80777377 0 0 Z " fill="#1B68C2" transform="translate(173,203)"/>
<path d="M0 0 C3.04067759 1.30397179 3.37649112 1.9478033 5 5 C5 8.6875 5 8.6875 4 12 C0.15681569 14.56212287 -3.04693955 14.33108539 -7.5 14.3125 C-8.65822266 14.33666992 -8.65822266 14.33666992 -9.83984375 14.36132812 C-15.52032595 14.36625055 -15.52032595 14.36625055 -17.71289062 12.69213867 C-19 11 -19 11 -19.5 7.5625 C-19 4 -19 4 -16.90625 1.8125 C-11.67921676 -1.44737019 -5.94493154 -0.80777377 0 0 Z " fill="#1B68C2" transform="translate(173,179)"/>
<path d="M0 0 C1.19625 -0.0103125 2.3925 -0.020625 3.625 -0.03125 C7.56382476 0.58875019 9.24063262 1.66355532 12 4.5 C12.5625 7.5 12.5625 7.5 12 10.5 C10.46484375 12.65625 10.46484375 12.65625 8 14.5 C5.16934716 14.90100915 2.81653341 15.06122899 0 15 C-0.7115625 15.01546875 -1.423125 15.0309375 -2.15625 15.046875 C-5.64448412 15.0208434 -7.64295744 14.76707463 -10.46484375 12.65625 C-12 10.5 -12 10.5 -12.5625 7.5 C-12 4.5 -12 4.5 -9.90234375 2.34375 C-6.34712872 0.08525539 -4.18482882 -0.03607611 0 0 Z " fill="#1B68C2" transform="translate(379,202.5)"/>
<path d="M0 0 C1.19625 -0.0103125 2.3925 -0.020625 3.625 -0.03125 C7.56382476 0.58875019 9.24063262 1.66355532 12 4.5 C12.5625 7.5 12.5625 7.5 12 10.5 C10.46484375 12.65625 10.46484375 12.65625 8 14.5 C5.16934716 14.90100915 2.81653341 15.06122899 0 15 C-0.7115625 15.01546875 -1.423125 15.0309375 -2.15625 15.046875 C-5.64448412 15.0208434 -7.64295744 14.76707463 -10.46484375 12.65625 C-12 10.5 -12 10.5 -12.5625 7.5 C-12 4.5 -12 4.5 -9.90234375 2.34375 C-6.34712872 0.08525539 -4.18482882 -0.03607611 0 0 Z " fill="#1B68C2" transform="translate(133,202.5)"/>
<path d="M0 0 C1.19625 -0.0103125 2.3925 -0.020625 3.625 -0.03125 C7.56382476 0.58875019 9.24063262 1.66355532 12 4.5 C12.5625 7.5 12.5625 7.5 12 10.5 C10.46484375 12.65625 10.46484375 12.65625 8 14.5 C5.16934716 14.90100915 2.81653341 15.06122899 0 15 C-0.7115625 15.01546875 -1.423125 15.0309375 -2.15625 15.046875 C-5.64448412 15.0208434 -7.64295744 14.76707463 -10.46484375 12.65625 C-12 10.5 -12 10.5 -12.5625 7.5 C-12 4.5 -12 4.5 -9.90234375 2.34375 C-6.34712872 0.08525539 -4.18482882 -0.03607611 0 0 Z " fill="#1B68C2" transform="translate(379,178.5)"/>
<path d="M0 0 C1.19625 -0.0103125 2.3925 -0.020625 3.625 -0.03125 C7.56382476 0.58875019 9.24063262 1.66355532 12 4.5 C12.5625 7.5 12.5625 7.5 12 10.5 C10.46484375 12.65625 10.46484375 12.65625 8 14.5 C5.16934716 14.90100915 2.81653341 15.06122899 0 15 C-0.7115625 15.01546875 -1.423125 15.0309375 -2.15625 15.046875 C-5.64448412 15.0208434 -7.64295744 14.76707463 -10.46484375 12.65625 C-12 10.5 -12 10.5 -12.5625 7.5 C-12 4.5 -12 4.5 -9.90234375 2.34375 C-6.34712872 0.08525539 -4.18482882 -0.03607611 0 0 Z " fill="#1B68C2" transform="translate(133,178.5)"/>
<path d="M0 0 C1.19625 -0.0103125 2.3925 -0.020625 3.625 -0.03125 C7.56382476 0.58875019 9.24063262 1.66355532 12 4.5 C12.5625 7.5 12.5625 7.5 12 10.5 C10.46484375 12.65625 10.46484375 12.65625 8 14.5 C5.16934716 14.90100915 2.81653341 15.06122899 0 15 C-0.7115625 15.01546875 -1.423125 15.0309375 -2.15625 15.046875 C-5.64448412 15.0208434 -7.64295744 14.76707463 -10.46484375 12.65625 C-12 10.5 -12 10.5 -12.5625 7.5 C-12 4.5 -12 4.5 -9.90234375 2.34375 C-6.34712872 0.08525539 -4.18482882 -0.03607611 0 0 Z " fill="#1B68C2" transform="translate(379,154.5)"/>
<path d="M0 0 C1.19625 -0.0103125 2.3925 -0.020625 3.625 -0.03125 C7.56382476 0.58875019 9.24063262 1.66355532 12 4.5 C12.5625 7.5 12.5625 7.5 12 10.5 C10.46484375 12.65625 10.46484375 12.65625 8 14.5 C5.16934716 14.90100915 2.81653341 15.06122899 0 15 C-0.7115625 15.01546875 -1.423125 15.0309375 -2.15625 15.046875 C-5.64448412 15.0208434 -7.64295744 14.76707463 -10.46484375 12.65625 C-12 10.5 -12 10.5 -12.5625 7.5 C-12 4.5 -12 4.5 -9.90234375 2.34375 C-6.34712872 0.08525539 -4.18482882 -0.03607611 0 0 Z " fill="#1B68C2" transform="translate(133,154.5)"/>
<path d="M0 0 C1.19625 -0.0103125 2.3925 -0.020625 3.625 -0.03125 C7.56382476 0.58875019 9.24063262 1.66355532 12 4.5 C12.5625 7.5 12.5625 7.5 12 10.5 C10.46484375 12.65625 10.46484375 12.65625 8 14.5 C5.16934716 14.90100915 2.81653341 15.06122899 0 15 C-0.7115625 15.01546875 -1.423125 15.0309375 -2.15625 15.046875 C-5.64448412 15.0208434 -7.64295744 14.76707463 -10.46484375 12.65625 C-12 10.5 -12 10.5 -12.5625 7.5 C-12 4.5 -12 4.5 -9.90234375 2.34375 C-6.34712872 0.08525539 -4.18482882 -0.03607611 0 0 Z " fill="#1B68C2" transform="translate(379,130.5)"/>
<path d="M0 0 C1.19625 -0.0103125 2.3925 -0.020625 3.625 -0.03125 C7.56382476 0.58875019 9.24063262 1.66355532 12 4.5 C12.5625 7.5 12.5625 7.5 12 10.5 C10.46484375 12.65625 10.46484375 12.65625 8 14.5 C5.16934716 14.90100915 2.81653341 15.06122899 0 15 C-0.7115625 15.01546875 -1.423125 15.0309375 -2.15625 15.046875 C-5.64448412 15.0208434 -7.64295744 14.76707463 -10.46484375 12.65625 C-12 10.5 -12 10.5 -12.5625 7.5 C-12 4.5 -12 4.5 -9.90234375 2.34375 C-6.34712872 0.08525539 -4.18482882 -0.03607611 0 0 Z " fill="#1B68C2" transform="translate(133,130.5)"/>
<path d="M0 0 C1.19625 -0.0103125 2.3925 -0.020625 3.625 -0.03125 C7.56382476 0.58875019 9.24063262 1.66355532 12 4.5 C12.5625 7.5 12.5625 7.5 12 10.5 C10.46484375 12.65625 10.46484375 12.65625 8 14.5 C5.16934716 14.90100915 2.81653341 15.06122899 0 15 C-0.7115625 15.01546875 -1.423125 15.0309375 -2.15625 15.046875 C-5.64448412 15.0208434 -7.64295744 14.76707463 -10.46484375 12.65625 C-12 10.5 -12 10.5 -12.5625 7.5 C-12 4.5 -12 4.5 -9.90234375 2.34375 C-6.34712872 0.08525539 -4.18482882 -0.03607611 0 0 Z " fill="#1B68C2" transform="translate(379,106.5)"/>
<path d="M0 0 C1.19625 -0.0103125 2.3925 -0.020625 3.625 -0.03125 C7.56382476 0.58875019 9.24063262 1.66355532 12 4.5 C12.5625 7.5 12.5625 7.5 12 10.5 C10.46484375 12.65625 10.46484375 12.65625 8 14.5 C5.16934716 14.90100915 2.81653341 15.06122899 0 15 C-0.7115625 15.01546875 -1.423125 15.0309375 -2.15625 15.046875 C-5.64448412 15.0208434 -7.64295744 14.76707463 -10.46484375 12.65625 C-12 10.5 -12 10.5 -12.5625 7.5 C-12 4.5 -12 4.5 -9.90234375 2.34375 C-6.34712872 0.08525539 -4.18482882 -0.03607611 0 0 Z " fill="#1B68C2" transform="translate(133,106.5)"/>
<path d="M0 0 C1.19625 -0.0103125 2.3925 -0.020625 3.625 -0.03125 C7.56382476 0.58875019 9.24063262 1.66355532 12 4.5 C12.5625 7.5 12.5625 7.5 12 10.5 C10.46484375 12.65625 10.46484375 12.65625 8 14.5 C5.16934716 14.90100915 2.81653341 15.06122899 0 15 C-0.7115625 15.01546875 -1.423125 15.0309375 -2.15625 15.046875 C-5.64448412 15.0208434 -7.64295744 14.76707463 -10.46484375 12.65625 C-12 10.5 -12 10.5 -12.5625 7.5 C-12 4.5 -12 4.5 -9.90234375 2.34375 C-6.34712872 0.08525539 -4.18482882 -0.03607611 0 0 Z " fill="#1B68C2" transform="translate(379,82.5)"/>
<path d="M0 0 C1.19625 -0.0103125 2.3925 -0.020625 3.625 -0.03125 C7.56382476 0.58875019 9.24063262 1.66355532 12 4.5 C12.5625 7.5 12.5625 7.5 12 10.5 C10.46484375 12.65625 10.46484375 12.65625 8 14.5 C5.16934716 14.90100915 2.81653341 15.06122899 0 15 C-0.7115625 15.01546875 -1.423125 15.0309375 -2.15625 15.046875 C-5.64448412 15.0208434 -7.64295744 14.76707463 -10.46484375 12.65625 C-12 10.5 -12 10.5 -12.5625 7.5 C-12 4.5 -12 4.5 -9.90234375 2.34375 C-6.34712872 0.08525539 -4.18482882 -0.03607611 0 0 Z " fill="#1B68C2" transform="translate(133,82.5)"/>
<path d="M0 0 C1.19625 -0.0103125 2.3925 -0.020625 3.625 -0.03125 C7.56382476 0.58875019 9.24063262 1.66355532 12 4.5 C12.5625 7.5 12.5625 7.5 12 10.5 C10.46484375 12.65625 10.46484375 12.65625 8 14.5 C5.16934716 14.90100915 2.81653341 15.06122899 0 15 C-0.7115625 15.01546875 -1.423125 15.0309375 -2.15625 15.046875 C-5.64448412 15.0208434 -7.64295744 14.76707463 -10.46484375 12.65625 C-12 10.5 -12 10.5 -12.5625 7.5 C-12 4.5 -12 4.5 -9.90234375 2.34375 C-6.34712872 0.08525539 -4.18482882 -0.03607611 0 0 Z " fill="#1B68C2" transform="translate(379,58.5)"/>
<path d="M0 0 C1.19625 -0.0103125 2.3925 -0.020625 3.625 -0.03125 C7.56382476 0.58875019 9.24063262 1.66355532 12 4.5 C12.5625 7.5 12.5625 7.5 12 10.5 C10.46484375 12.65625 10.46484375 12.65625 8 14.5 C5.16934716 14.90100915 2.81653341 15.06122899 0 15 C-0.7115625 15.01546875 -1.423125 15.0309375 -2.15625 15.046875 C-5.64448412 15.0208434 -7.64295744 14.76707463 -10.46484375 12.65625 C-12 10.5 -12 10.5 -12.5625 7.5 C-12 4.5 -12 4.5 -9.90234375 2.34375 C-6.34712872 0.08525539 -4.18482882 -0.03607611 0 0 Z " fill="#1B68C2" transform="translate(133,58.5)"/>
</svg>
